<svg id="圖層_1" data-name="圖層 1" xmlns="http://www.w3.org/2000/svg" xmlns:xlink="http://www.w3.org/1999/xlink" viewBox="0 0 500 500"><defs><style>.cls-1{opacity:0.85;isolation:isolate;fill:url(#未命名漸層_5);}</style><radialGradient id="未命名漸層_5" cx="-610.43" cy="204.2" r="92.92" gradientTransform="matrix(1, 0, 0, -1, 860.43, 454.2)" gradientUnits="userSpaceOnUse"><stop offset="0" stop-color="#fff"/><stop offset="0.31" stop-color="#fff" stop-opacity="0.99"/><stop offset="0.51" stop-color="#fff" stop-opacity="0.95"/><stop offset="0.69" stop-color="#fff" stop-opacity="0.9"/><stop offset="0.85" stop-color="#fff" stop-opacity="0.81"/><stop offset="0.99" stop-color="#fff" stop-opacity="0.71"/><stop offset="1" stop-color="#fff" stop-opacity="0.7"/></radialGradient></defs><title>cloud4</title><path class="cls-1" d="M359.74,247.78a28.39,28.39,0,0,0-27.83-33,31.26,31.26,0,0,0-48.09-8.6,28.5,28.5,0,0,0-21.08-15.62,39.3,39.3,0,0,0-50.58,18.65,39.38,39.38,0,0,0-66.74,28,28.49,28.49,0,0,0,17.5,50.95h0a28.32,28.32,0,0,0,13.54-3.35A39.42,39.42,0,0,0,218.27,297a39.2,39.2,0,0,0,51.88.67,25.81,25.81,0,0,0,48.63-5.5A20.31,20.31,0,0,0,346.46,274a15.19,15.19,0,0,0,4.09.58,14.94,14.94,0,0,0,9.19-26.77Z"/></svg>