<svg id="圖層_1" data-name="圖層 1" xmlns="http://www.w3.org/2000/svg" xmlns:xlink="http://www.w3.org/1999/xlink" viewBox="0 0 500 500"><defs><style>.cls-1{opacity:0.85;isolation:isolate;fill:url(#未命名漸層_3);}</style><radialGradient id="未命名漸層_3" cx="-610.43" cy="204.2" r="121.9" gradientTransform="matrix(1, 0, 0, -1, 860.43, 454.2)" gradientUnits="userSpaceOnUse"><stop offset="0" stop-color="#fff"/><stop offset="0.31" stop-color="#fff" stop-opacity="0.99"/><stop offset="0.51" stop-color="#fff" stop-opacity="0.95"/><stop offset="0.69" stop-color="#fff" stop-opacity="0.9"/><stop offset="0.85" stop-color="#fff" stop-opacity="0.81"/><stop offset="0.99" stop-color="#fff" stop-opacity="0.71"/><stop offset="1" stop-color="#fff" stop-opacity="0.7"/></radialGradient></defs><title>cloud3</title><path class="cls-1" d="M363.61,209.09a39.27,39.27,0,0,0-23.32,7.57,39.37,39.37,0,0,0-22-7.51,39.58,39.58,0,0,0-63.42-30.3,39.16,39.16,0,0,0-14.3-2.73A39.59,39.59,0,0,0,205.06,198,39.56,39.56,0,0,0,142,209.12a39.19,39.19,0,0,0-5.41-.43,39.65,39.65,0,0,0-39.74,39.55h0a39.64,39.64,0,0,0,37.08,39.6,28.6,28.6,0,0,0,39.5,16.47,39.61,39.61,0,0,0,73.91-1.06,39.56,39.56,0,0,0,53.36-18.41,39.53,39.53,0,0,0,39.54-4,39.6,39.6,0,0,0,62.89-32h0A39.65,39.65,0,0,0,363.61,209.09Z"/></svg>