<svg id="圖層_1" data-name="圖層 1" xmlns="http://www.w3.org/2000/svg" xmlns:xlink="http://www.w3.org/1999/xlink" viewBox="0 0 500 500"><defs><style>.cls-1{opacity:0.85;isolation:isolate;fill:url(#未命名漸層_7);}</style><radialGradient id="未命名漸層_7" cx="-610.58" cy="204.2" r="49.05" gradientTransform="matrix(1, 0, 0, -1, 860.43, 454.2)" gradientUnits="userSpaceOnUse"><stop offset="0" stop-color="#fff"/><stop offset="0.31" stop-color="#fff" stop-opacity="0.99"/><stop offset="0.51" stop-color="#fff" stop-opacity="0.95"/><stop offset="0.69" stop-color="#fff" stop-opacity="0.9"/><stop offset="0.85" stop-color="#fff" stop-opacity="0.81"/><stop offset="0.99" stop-color="#fff" stop-opacity="0.71"/><stop offset="1" stop-color="#fff" stop-opacity="0.7"/></radialGradient></defs><title>cloud7</title><path class="cls-1" d="M296.8,233a20.73,20.73,0,0,0-31.59-15.48,15,15,0,0,0-27.76,2.2,20.09,20.09,0,0,0-4.24-.45,20.74,20.74,0,0,0-18,10.35,7.75,7.75,0,0,0-10,7.28,15,15,0,0,0-2.73,28.26,16,16,0,0,0-.16,2.07,15,15,0,0,0,14.92,15.08h.08a15.73,15.73,0,0,0,3.06-.31,20.74,20.74,0,0,0,35.67-2.75,20.76,20.76,0,0,0,32.08-17.39v-.26a15,15,0,0,0,8.64-28.62Z"/></svg>