<svg id="圖層_1" data-name="圖層 1" xmlns="http://www.w3.org/2000/svg" xmlns:xlink="http://www.w3.org/1999/xlink" viewBox="0 0 500 500"><defs><style>.cls-1{opacity:0.85;isolation:isolate;fill:url(#未命名漸層_2);}</style><radialGradient id="未命名漸層_2" cx="-610.43" cy="204.2" r="178.44" gradientTransform="matrix(1, 0, 0, -1, 860.43, 454.2)" gradientUnits="userSpaceOnUse"><stop offset="0" stop-color="#fff"/><stop offset="0.31" stop-color="#fff" stop-opacity="0.99"/><stop offset="0.51" stop-color="#fff" stop-opacity="0.95"/><stop offset="0.69" stop-color="#fff" stop-opacity="0.9"/><stop offset="0.85" stop-color="#fff" stop-opacity="0.81"/><stop offset="0.99" stop-color="#fff" stop-opacity="0.71"/><stop offset="1" stop-color="#fff" stop-opacity="0.7"/></radialGradient></defs><title>cloud1</title><path class="cls-1" d="M439.93,236.62a29.28,29.28,0,0,0-6.53.76,31.24,31.24,0,0,0-3-2.75,39.6,39.6,0,0,0-47.56-60.28,39.62,39.62,0,0,0-32.55-22.55,31.43,31.43,0,0,0-50.33-7A39.61,39.61,0,0,0,229.72,146a39.55,39.55,0,0,0-63,11.08,40.93,40.93,0,0,0-5.41-.42,39.59,39.59,0,0,0-39.74,39.44,39.07,39.07,0,0,0,1.61,11.32A39.5,39.5,0,0,0,76.33,228a41.1,41.1,0,0,0-5.42-.43,39.63,39.63,0,0,0-2.65,79.17,28.61,28.61,0,0,0,39.53,16.47,39.58,39.58,0,0,0,63.34,14.56,39.54,39.54,0,0,0,31,18.49A28.69,28.69,0,0,0,256.76,355a39.37,39.37,0,0,0,38-9.27,39.61,39.61,0,0,0,77-.32,24.6,24.6,0,0,0,34.89-30.67,28.68,28.68,0,0,0,20.72-23.68,28.7,28.7,0,1,0,12.6-54.45Z"/></svg>