<svg id="圖層_1" data-name="圖層 1" xmlns="http://www.w3.org/2000/svg" xmlns:xlink="http://www.w3.org/1999/xlink" viewBox="0 0 500 500"><defs><style>.cls-1{opacity:0.85;isolation:isolate;fill:url(#未命名漸層);}</style><radialGradient id="未命名漸層" cx="-610.43" cy="204.2" r="116" gradientTransform="matrix(1, 0, 0, -1, 860.43, 454.2)" gradientUnits="userSpaceOnUse"><stop offset="0" stop-color="#fff"/><stop offset="0.31" stop-color="#fff" stop-opacity="0.99"/><stop offset="0.51" stop-color="#fff" stop-opacity="0.95"/><stop offset="0.69" stop-color="#fff" stop-opacity="0.9"/><stop offset="0.85" stop-color="#fff" stop-opacity="0.81"/><stop offset="0.99" stop-color="#fff" stop-opacity="0.71"/><stop offset="1" stop-color="#fff" stop-opacity="0.7"/></radialGradient></defs><title>cloud6</title><path class="cls-1" d="M393.62,240.45a39.59,39.59,0,0,0-57.71-35.26,31.36,31.36,0,0,0-51.07-8.39,39.61,39.61,0,0,0-67.38-3.48,39.59,39.59,0,0,0-75.33,15.89,39.63,39.63,0,0,0,1.56,79,28.46,28.46,0,0,0,39.57,16.3,39.61,39.61,0,0,0,73.92-1.22A39.51,39.51,0,0,0,308.71,288c1.41.15,2.83.22,4.25.23.67,0,1.32-.07,2-.1a24.58,24.58,0,0,0,48.28-9.23A39.63,39.63,0,0,0,393.62,240.45Z"/></svg>