<svg id="圖層_1" data-name="圖層 1" xmlns="http://www.w3.org/2000/svg" xmlns:xlink="http://www.w3.org/1999/xlink" viewBox="0 0 500 500"><defs><style>.cls-1{opacity:0.85;isolation:isolate;fill:url(#未命名漸層_4);}</style><radialGradient id="未命名漸層_4" cx="-610.43" cy="204.2" r="158.44" gradientTransform="matrix(1, 0, 0, -1, 860.43, 454.2)" gradientUnits="userSpaceOnUse"><stop offset="0" stop-color="#fff"/><stop offset="0.31" stop-color="#fff" stop-opacity="0.99"/><stop offset="0.51" stop-color="#fff" stop-opacity="0.95"/><stop offset="0.69" stop-color="#fff" stop-opacity="0.9"/><stop offset="0.85" stop-color="#fff" stop-opacity="0.81"/><stop offset="0.99" stop-color="#fff" stop-opacity="0.71"/><stop offset="1" stop-color="#fff" stop-opacity="0.7"/></radialGradient></defs><title>cloud5</title><path class="cls-1" d="M436.37,253.09a60.82,60.82,0,0,0-98.08-70.43,63.08,63.08,0,0,0-114-2.35A63,63,0,0,0,123.82,198a63.14,63.14,0,1,0,34.84,108.14,63.05,63.05,0,0,0,104.45,13.14,63.11,63.11,0,0,0,115.05-3.79c.82.06,1.65.13,2.49.13A32.56,32.56,0,0,0,412.72,289a21.63,21.63,0,1,0,23.66-35.91Z"/></svg>