<svg id="圖層_1" data-name="圖層 1" xmlns="http://www.w3.org/2000/svg" xmlns:xlink="http://www.w3.org/1999/xlink" viewBox="0 0 500 500"><defs><style>.cls-1{opacity:0.85;isolation:isolate;fill:url(#未命名漸層_6);}</style><radialGradient id="未命名漸層_6" cx="-610.43" cy="204.2" r="114.26" gradientTransform="matrix(1, 0, 0, -1, 860.43, 454.2)" gradientUnits="userSpaceOnUse"><stop offset="0" stop-color="#fff"/><stop offset="0.31" stop-color="#fff" stop-opacity="0.99"/><stop offset="0.51" stop-color="#fff" stop-opacity="0.95"/><stop offset="0.69" stop-color="#fff" stop-opacity="0.9"/><stop offset="0.85" stop-color="#fff" stop-opacity="0.81"/><stop offset="0.99" stop-color="#fff" stop-opacity="0.71"/><stop offset="1" stop-color="#fff" stop-opacity="0.7"/></radialGradient></defs><title>cloud2</title><path class="cls-1" d="M388.68,252.8a28.39,28.39,0,0,0-5.59-17,39.41,39.41,0,0,0-39.17-36.08,37.71,37.71,0,0,0-6.8.61,39.35,39.35,0,0,0-34-19.64,39.87,39.87,0,0,0-5.35.39,39.33,39.33,0,0,0-61.18,1.24,28.49,28.49,0,0,0-42.32,15.51,39,39,0,0,0-8.05-.85,39.36,39.36,0,0,0-34.13,19.59,14.69,14.69,0,0,0-4-.56,14.93,14.93,0,0,0-15,14.43,28.53,28.53,0,0,0-5.15,53.64,26.91,26.91,0,0,0-.31,3.92,28.52,28.52,0,0,0,28.44,28.6h0a29,29,0,0,0,5.8-.58,39.32,39.32,0,0,0,61.22,4.2,39.34,39.34,0,0,0,48.36-2.18,25.84,25.84,0,0,0,48.67-5.54,20.31,20.31,0,0,0,27.68-18.22,15,15,0,0,0,19.09-13.85A28.53,28.53,0,0,0,388.68,252.8Z"/></svg>